<mxfile host="app.diagrams.net" modified="2020-09-08T15:09:09.273Z" agent="5.0 (X11)" etag="H0GD9xO_yx-zHlU5EFim" version="13.6.9" type="github">
  <diagram id="EHZb14BvgaKVWSqgQuvn" name="Page-1">
    <mxGraphModel dx="677" dy="396" grid="1" gridSize="10" guides="1" tooltips="1" connect="1" arrows="1" fold="1" page="1" pageScale="1" pageWidth="850" pageHeight="1100" math="0" shadow="0">
      <root>
        <mxCell id="0" />
        <mxCell id="1" parent="0" />
        <mxCell id="VB6oOExeKXiY0ZP3QW9x-2" value="third-i-frontend" style="html=1;" parent="1" vertex="1">
          <mxGeometry x="276" y="490" width="110" height="50" as="geometry" />
        </mxCell>
        <mxCell id="R91F2Yu0FQq_XXMoHAW0-1" value="captive-portal" style="html=1;" parent="1" vertex="1">
          <mxGeometry x="276" y="90" width="110" height="50" as="geometry" />
        </mxCell>
        <mxCell id="R91F2Yu0FQq_XXMoHAW0-2" value="&lt;div&gt;third-i-backend&lt;/div&gt;" style="html=1;" parent="1" vertex="1">
          <mxGeometry x="276" y="220" width="110" height="50" as="geometry" />
        </mxCell>
        <mxCell id="R91F2Yu0FQq_XXMoHAW0-5" value="UNIX socket" style="html=1;verticalAlign=bottom;endArrow=block;entryX=0.5;entryY=1;entryDx=0;entryDy=0;exitX=0.5;exitY=0;exitDx=0;exitDy=0;" parent="1" source="R91F2Yu0FQq_XXMoHAW0-2" target="R91F2Yu0FQq_XXMoHAW0-1" edge="1">
          <mxGeometry width="80" relative="1" as="geometry">
            <mxPoint x="516" y="170" as="sourcePoint" />
            <mxPoint x="576" y="230" as="targetPoint" />
          </mxGeometry>
        </mxCell>
        <mxCell id="R91F2Yu0FQq_XXMoHAW0-7" value="&lt;div&gt;serve&lt;br&gt;files&lt;br&gt;&lt;/div&gt;" style="html=1;verticalAlign=bottom;endArrow=block;entryX=0.25;entryY=0;entryDx=0;entryDy=0;exitX=0.25;exitY=1;exitDx=0;exitDy=0;" parent="1" source="zNTZZsJCAmpR414pE-_L-1" target="VB6oOExeKXiY0ZP3QW9x-2" edge="1">
          <mxGeometry width="80" relative="1" as="geometry">
            <mxPoint x="220" y="420" as="sourcePoint" />
            <mxPoint x="576" y="230" as="targetPoint" />
          </mxGeometry>
        </mxCell>
        <mxCell id="R91F2Yu0FQq_XXMoHAW0-8" value="JSON API" style="html=1;verticalAlign=bottom;endArrow=block;exitX=0.75;exitY=0;exitDx=0;exitDy=0;entryX=0.75;entryY=1;entryDx=0;entryDy=0;" parent="1" source="VB6oOExeKXiY0ZP3QW9x-2" target="zNTZZsJCAmpR414pE-_L-1" edge="1">
          <mxGeometry width="80" relative="1" as="geometry">
            <mxPoint x="496" y="230" as="sourcePoint" />
            <mxPoint x="440" y="380" as="targetPoint" />
          </mxGeometry>
        </mxCell>
        <mxCell id="R91F2Yu0FQq_XXMoHAW0-13" value="" style="pointerEvents=1;shadow=0;dashed=0;html=1;strokeColor=none;fillColor=#505050;labelPosition=center;verticalLabelPosition=bottom;verticalAlign=top;outlineConnect=0;align=center;shape=mxgraph.office.devices.cell_phone_android_standalone;" parent="1" vertex="1">
          <mxGeometry x="533" y="540" width="24" height="44" as="geometry" />
        </mxCell>
        <mxCell id="R91F2Yu0FQq_XXMoHAW0-14" value="" style="pointerEvents=1;shadow=0;dashed=0;html=1;strokeColor=none;fillColor=#505050;labelPosition=center;verticalLabelPosition=bottom;verticalAlign=top;outlineConnect=0;align=center;shape=mxgraph.office.devices.laptop;" parent="1" vertex="1">
          <mxGeometry x="516" y="456" width="58" height="34" as="geometry" />
        </mxCell>
        <mxCell id="R91F2Yu0FQq_XXMoHAW0-15" value="" style="endArrow=classic;html=1;entryX=1;entryY=0.25;entryDx=0;entryDy=0;" parent="1" source="R91F2Yu0FQq_XXMoHAW0-14" target="VB6oOExeKXiY0ZP3QW9x-2" edge="1">
          <mxGeometry width="50" height="50" relative="1" as="geometry">
            <mxPoint x="516" y="260" as="sourcePoint" />
            <mxPoint x="566" y="210" as="targetPoint" />
          </mxGeometry>
        </mxCell>
        <mxCell id="R91F2Yu0FQq_XXMoHAW0-16" value="" style="endArrow=classic;html=1;entryX=1;entryY=0.75;entryDx=0;entryDy=0;" parent="1" source="R91F2Yu0FQq_XXMoHAW0-13" target="VB6oOExeKXiY0ZP3QW9x-2" edge="1">
          <mxGeometry width="50" height="50" relative="1" as="geometry">
            <mxPoint x="516" y="260" as="sourcePoint" />
            <mxPoint x="566" y="210" as="targetPoint" />
          </mxGeometry>
        </mxCell>
        <mxCell id="R91F2Yu0FQq_XXMoHAW0-23" style="edgeStyle=orthogonalEdgeStyle;rounded=0;orthogonalLoop=1;jettySize=auto;html=1;exitX=1;exitY=0.5;exitDx=0;exitDy=0;entryX=0;entryY=0.5;entryDx=0;entryDy=0;" parent="1" source="R91F2Yu0FQq_XXMoHAW0-17" target="R91F2Yu0FQq_XXMoHAW0-18" edge="1">
          <mxGeometry relative="1" as="geometry" />
        </mxCell>
        <mxCell id="R91F2Yu0FQq_XXMoHAW0-17" value="Nginx" style="html=1;" parent="1" vertex="1">
          <mxGeometry x="240" y="790" width="110" height="50" as="geometry" />
        </mxCell>
        <mxCell id="R91F2Yu0FQq_XXMoHAW0-21" style="edgeStyle=orthogonalEdgeStyle;rounded=0;orthogonalLoop=1;jettySize=auto;html=1;exitX=1;exitY=0.25;exitDx=0;exitDy=0;entryX=0;entryY=0.5;entryDx=0;entryDy=0;" parent="1" source="R91F2Yu0FQq_XXMoHAW0-18" target="R91F2Yu0FQq_XXMoHAW0-19" edge="1">
          <mxGeometry relative="1" as="geometry" />
        </mxCell>
        <mxCell id="R91F2Yu0FQq_XXMoHAW0-22" style="edgeStyle=orthogonalEdgeStyle;rounded=0;orthogonalLoop=1;jettySize=auto;html=1;exitX=1;exitY=0.75;exitDx=0;exitDy=0;entryX=0;entryY=0.5;entryDx=0;entryDy=0;" parent="1" source="R91F2Yu0FQq_XXMoHAW0-18" target="R91F2Yu0FQq_XXMoHAW0-20" edge="1">
          <mxGeometry relative="1" as="geometry" />
        </mxCell>
        <mxCell id="R91F2Yu0FQq_XXMoHAW0-18" value="FastCGI&lt;br&gt;(PHP)" style="html=1;" parent="1" vertex="1">
          <mxGeometry x="390" y="790" width="110" height="50" as="geometry" />
        </mxCell>
        <mxCell id="R91F2Yu0FQq_XXMoHAW0-19" value="PHP FileManager" style="html=1;" parent="1" vertex="1">
          <mxGeometry x="540" y="750" width="110" height="50" as="geometry" />
        </mxCell>
        <mxCell id="R91F2Yu0FQq_XXMoHAW0-31" style="edgeStyle=orthogonalEdgeStyle;rounded=0;orthogonalLoop=1;jettySize=auto;html=1;exitX=0.5;exitY=1;exitDx=0;exitDy=0;entryX=0.5;entryY=0;entryDx=0;entryDy=0;" parent="1" source="R91F2Yu0FQq_XXMoHAW0-20" target="R91F2Yu0FQq_XXMoHAW0-30" edge="1">
          <mxGeometry relative="1" as="geometry" />
        </mxCell>
        <mxCell id="R91F2Yu0FQq_XXMoHAW0-20" value="Adminka" style="html=1;" parent="1" vertex="1">
          <mxGeometry x="540" y="830" width="110" height="50" as="geometry" />
        </mxCell>
        <mxCell id="R91F2Yu0FQq_XXMoHAW0-24" value="Scripts (PHP)" style="html=1;" parent="1" vertex="1">
          <mxGeometry x="390" y="990" width="110" height="50" as="geometry" />
        </mxCell>
        <mxCell id="R91F2Yu0FQq_XXMoHAW0-29" style="edgeStyle=orthogonalEdgeStyle;rounded=0;orthogonalLoop=1;jettySize=auto;html=1;exitX=1;exitY=0.5;exitDx=0;exitDy=0;entryX=0;entryY=0.5;entryDx=0;entryDy=0;" parent="1" source="R91F2Yu0FQq_XXMoHAW0-25" target="R91F2Yu0FQq_XXMoHAW0-24" edge="1">
          <mxGeometry relative="1" as="geometry" />
        </mxCell>
        <mxCell id="R91F2Yu0FQq_XXMoHAW0-32" style="edgeStyle=orthogonalEdgeStyle;rounded=0;orthogonalLoop=1;jettySize=auto;html=1;exitX=0.5;exitY=0;exitDx=0;exitDy=0;entryX=0;entryY=0.5;entryDx=0;entryDy=0;" parent="1" source="R91F2Yu0FQq_XXMoHAW0-25" target="R91F2Yu0FQq_XXMoHAW0-30" edge="1">
          <mxGeometry relative="1" as="geometry" />
        </mxCell>
        <mxCell id="R91F2Yu0FQq_XXMoHAW0-25" value="Daemons (PHP)" style="html=1;" parent="1" vertex="1">
          <mxGeometry x="240" y="990" width="110" height="50" as="geometry" />
        </mxCell>
        <mxCell id="R91F2Yu0FQq_XXMoHAW0-30" value="&lt;div&gt;stereopi.conf&lt;/div&gt;" style="html=1;" parent="1" vertex="1">
          <mxGeometry x="540" y="910" width="110" height="50" as="geometry" />
        </mxCell>
        <mxCell id="R91F2Yu0FQq_XXMoHAW0-33" value="" style="pointerEvents=1;shadow=0;dashed=0;html=1;strokeColor=none;fillColor=#505050;labelPosition=center;verticalLabelPosition=bottom;verticalAlign=top;outlineConnect=0;align=center;shape=mxgraph.office.devices.cell_phone_android_standalone;" parent="1" vertex="1">
          <mxGeometry x="127" y="818" width="24" height="44" as="geometry" />
        </mxCell>
        <mxCell id="R91F2Yu0FQq_XXMoHAW0-34" value="" style="pointerEvents=1;shadow=0;dashed=0;html=1;strokeColor=none;fillColor=#505050;labelPosition=center;verticalLabelPosition=bottom;verticalAlign=top;outlineConnect=0;align=center;shape=mxgraph.office.devices.laptop;" parent="1" vertex="1">
          <mxGeometry x="110" y="768" width="58" height="34" as="geometry" />
        </mxCell>
        <mxCell id="R91F2Yu0FQq_XXMoHAW0-35" value="" style="endArrow=classic;html=1;entryX=0;entryY=0.25;entryDx=0;entryDy=0;" parent="1" source="R91F2Yu0FQq_XXMoHAW0-34" target="R91F2Yu0FQq_XXMoHAW0-17" edge="1">
          <mxGeometry width="50" height="50" relative="1" as="geometry">
            <mxPoint x="40" y="708" as="sourcePoint" />
            <mxPoint x="-90" y="800.5" as="targetPoint" />
          </mxGeometry>
        </mxCell>
        <mxCell id="R91F2Yu0FQq_XXMoHAW0-36" value="" style="endArrow=classic;html=1;entryX=0;entryY=0.75;entryDx=0;entryDy=0;" parent="1" source="R91F2Yu0FQq_XXMoHAW0-33" target="R91F2Yu0FQq_XXMoHAW0-17" edge="1">
          <mxGeometry width="50" height="50" relative="1" as="geometry">
            <mxPoint x="40" y="708" as="sourcePoint" />
            <mxPoint x="-90" y="825.5" as="targetPoint" />
          </mxGeometry>
        </mxCell>
        <mxCell id="zNTZZsJCAmpR414pE-_L-1" value="Nginx" style="html=1;" vertex="1" parent="1">
          <mxGeometry x="276" y="350" width="110" height="50" as="geometry" />
        </mxCell>
        <mxCell id="zNTZZsJCAmpR414pE-_L-2" value="proxy" style="html=1;verticalAlign=bottom;endArrow=block;exitX=0.5;exitY=0;exitDx=0;exitDy=0;entryX=0.5;entryY=1;entryDx=0;entryDy=0;" edge="1" parent="1" source="zNTZZsJCAmpR414pE-_L-1" target="R91F2Yu0FQq_XXMoHAW0-2">
          <mxGeometry width="80" relative="1" as="geometry">
            <mxPoint x="368.5" y="500" as="sourcePoint" />
            <mxPoint x="368.5" y="410" as="targetPoint" />
          </mxGeometry>
        </mxCell>
        <mxCell id="zNTZZsJCAmpR414pE-_L-4" value="&lt;div&gt;MCU&lt;/div&gt;&lt;div&gt;LED + screen&lt;/div&gt;&lt;div&gt;+ buttons&lt;br&gt;&lt;/div&gt;" style="html=1;" vertex="1" parent="1">
          <mxGeometry x="460" y="220" width="110" height="50" as="geometry" />
        </mxCell>
        <mxCell id="zNTZZsJCAmpR414pE-_L-5" value="serial" style="html=1;verticalAlign=bottom;endArrow=block;exitX=1;exitY=0.5;exitDx=0;exitDy=0;entryX=0;entryY=0.5;entryDx=0;entryDy=0;startArrow=block;startFill=1;" edge="1" parent="1" source="R91F2Yu0FQq_XXMoHAW0-2" target="zNTZZsJCAmpR414pE-_L-4">
          <mxGeometry width="80" relative="1" as="geometry">
            <mxPoint x="341" y="360" as="sourcePoint" />
            <mxPoint x="341" y="280" as="targetPoint" />
          </mxGeometry>
        </mxCell>
      </root>
    </mxGraphModel>
  </diagram>
</mxfile>
